<mxfile host="app.diagrams.net" modified="2024-01-28T07:18:07.208Z" agent="Mozilla/5.0 (Windows NT 10.0; Win64; x64) AppleWebKit/537.36 (KHTML, like Gecko) Chrome/120.0.0.0 Safari/537.36 Edg/120.0.0.0" version="23.0.2" etag="l1Py-nKJoJWoZ_2v_Coq" type="device">
  <diagram id="-O29n0I3q80ZnN1tSkcT" name="ページ1">
    <mxGraphModel dx="632" dy="344" grid="1" gridSize="10" guides="1" tooltips="1" connect="1" arrows="1" fold="1" page="1" pageScale="1" pageWidth="827" pageHeight="1169" math="0" shadow="0">
      <root>
        <mxCell id="0" />
        <mxCell id="1" parent="0" />
        <mxCell id="qQ1B01lP6RYLJLhDZoL5-1" value="" style="endArrow=classic;html=1;rounded=0;entryX=0;entryY=0.5;entryDx=0;entryDy=0;" edge="1" parent="1" target="qQ1B01lP6RYLJLhDZoL5-4">
          <mxGeometry width="50" height="50" relative="1" as="geometry">
            <mxPoint x="100" y="454" as="sourcePoint" />
            <mxPoint x="200" y="450" as="targetPoint" />
          </mxGeometry>
        </mxCell>
        <mxCell id="qQ1B01lP6RYLJLhDZoL5-3" value="センサーデータ" style="text;html=1;align=center;verticalAlign=middle;resizable=0;points=[];autosize=1;strokeColor=none;fillColor=none;" vertex="1" parent="1">
          <mxGeometry x="70" y="430" width="110" height="30" as="geometry" />
        </mxCell>
        <mxCell id="qQ1B01lP6RYLJLhDZoL5-4" value="解消方法予測" style="rounded=1;whiteSpace=wrap;html=1;" vertex="1" parent="1">
          <mxGeometry x="200" y="430" width="105" height="48" as="geometry" />
        </mxCell>
        <mxCell id="qQ1B01lP6RYLJLhDZoL5-5" value="" style="endArrow=classic;html=1;rounded=0;exitX=1;exitY=0.5;exitDx=0;exitDy=0;" edge="1" parent="1" source="qQ1B01lP6RYLJLhDZoL5-4">
          <mxGeometry width="50" height="50" relative="1" as="geometry">
            <mxPoint x="340" y="458" as="sourcePoint" />
            <mxPoint x="370" y="454" as="targetPoint" />
          </mxGeometry>
        </mxCell>
        <mxCell id="qQ1B01lP6RYLJLhDZoL5-6" value="解消方法" style="text;html=1;align=center;verticalAlign=middle;resizable=0;points=[];autosize=1;strokeColor=none;fillColor=none;" vertex="1" parent="1">
          <mxGeometry x="305" y="410" width="70" height="30" as="geometry" />
        </mxCell>
        <mxCell id="qQ1B01lP6RYLJLhDZoL5-8" value="注意文言リスト" style="text;html=1;align=center;verticalAlign=middle;resizable=0;points=[];autosize=1;strokeColor=none;fillColor=none;" vertex="1" parent="1">
          <mxGeometry x="230" y="500" width="110" height="30" as="geometry" />
        </mxCell>
        <mxCell id="qQ1B01lP6RYLJLhDZoL5-15" style="edgeStyle=orthogonalEdgeStyle;rounded=0;orthogonalLoop=1;jettySize=auto;html=1;exitX=1;exitY=0.5;exitDx=0;exitDy=0;" edge="1" parent="1" source="qQ1B01lP6RYLJLhDZoL5-10">
          <mxGeometry relative="1" as="geometry">
            <mxPoint x="570" y="454" as="targetPoint" />
          </mxGeometry>
        </mxCell>
        <mxCell id="qQ1B01lP6RYLJLhDZoL5-16" style="edgeStyle=orthogonalEdgeStyle;rounded=0;orthogonalLoop=1;jettySize=auto;html=1;exitX=0.688;exitY=1.023;exitDx=0;exitDy=0;entryX=0;entryY=0.75;entryDx=0;entryDy=0;exitPerimeter=0;" edge="1" parent="1" source="qQ1B01lP6RYLJLhDZoL5-8" target="qQ1B01lP6RYLJLhDZoL5-10">
          <mxGeometry relative="1" as="geometry">
            <mxPoint x="330" y="530" as="sourcePoint" />
            <Array as="points">
              <mxPoint x="340" y="531" />
              <mxPoint x="340" y="466" />
            </Array>
          </mxGeometry>
        </mxCell>
        <mxCell id="qQ1B01lP6RYLJLhDZoL5-10" value="推薦システム" style="rounded=1;whiteSpace=wrap;html=1;" vertex="1" parent="1">
          <mxGeometry x="370" y="430" width="105" height="48" as="geometry" />
        </mxCell>
        <mxCell id="qQ1B01lP6RYLJLhDZoL5-18" value="有効な注意文言" style="text;html=1;align=center;verticalAlign=middle;resizable=0;points=[];autosize=1;strokeColor=none;fillColor=none;" vertex="1" parent="1">
          <mxGeometry x="480" y="430" width="110" height="30" as="geometry" />
        </mxCell>
        <mxCell id="qQ1B01lP6RYLJLhDZoL5-19" value="" style="swimlane;startSize=0;" vertex="1" parent="1">
          <mxGeometry x="175" y="390" width="315" height="170" as="geometry" />
        </mxCell>
      </root>
    </mxGraphModel>
  </diagram>
</mxfile>
